<mxfile host="app.diagrams.net" modified="2024-03-01T18:52:11.693Z" agent="Mozilla/5.0 (Windows NT 10.0; Win64; x64) AppleWebKit/537.36 (KHTML, like Gecko) Chrome/122.0.0.0 Safari/537.36" etag="jRWWzqb-N78GrtQq4GnV" version="23.1.7" type="device">
  <diagram name="Page-1" id="lFUJ7Ma-6i1WgsRjnhZW">
    <mxGraphModel dx="1049" dy="624" grid="1" gridSize="10" guides="1" tooltips="1" connect="1" arrows="1" fold="1" page="1" pageScale="1" pageWidth="850" pageHeight="1100" math="0" shadow="0">
      <root>
        <mxCell id="0" />
        <mxCell id="1" parent="0" />
        <mxCell id="oJEmA8fLGrkpA4qbkfxY-2" value="" style="rounded=0;whiteSpace=wrap;html=1;" vertex="1" parent="1">
          <mxGeometry x="240" y="170" width="360" height="480" as="geometry" />
        </mxCell>
        <mxCell id="oJEmA8fLGrkpA4qbkfxY-4" value="alarm title" style="rounded=1;whiteSpace=wrap;html=1;" vertex="1" parent="1">
          <mxGeometry x="260" y="190" width="320" height="50" as="geometry" />
        </mxCell>
        <mxCell id="oJEmA8fLGrkpA4qbkfxY-6" value="" style="rounded=0;whiteSpace=wrap;html=1;" vertex="1" parent="1">
          <mxGeometry x="470" y="250" width="110" height="30" as="geometry" />
        </mxCell>
        <mxCell id="oJEmA8fLGrkpA4qbkfxY-8" value="" style="rounded=0;whiteSpace=wrap;html=1;" vertex="1" parent="1">
          <mxGeometry x="260" y="290" width="320" height="30" as="geometry" />
        </mxCell>
      </root>
    </mxGraphModel>
  </diagram>
</mxfile>
